<svg xmlns="http://www.w3.org/2000/svg" xmlns:xlink="http://www.w3.org/1999/xlink" width="48" height="48" viewBox="0 0 48 48">
  <defs>
    <circle id="jess-small-a" cx="24" cy="24" r="23.04"/>
  </defs>
  <g fill="none" fill-rule="evenodd">
    <mask id="jess-small-b" fill="#fff">
      <use xlink:href="#jess-small-a"/>
    </mask>
    <g stroke-linecap="round" stroke-linejoin="round">
      <use fill="#FCE0DF" xlink:href="#jess-small-a"/>
      <circle cx="24" cy="24" r="23.54" stroke="#1D143E"/>
    </g>
    <path fill="#1D143E" stroke="#1D143E" stroke-linecap="round" stroke-linejoin="round" stroke-width=".96" d="M19.9367252,40.7119907 C21.7032981,40.4695372 21.572026,38.9054016 23.3622404,38.8068661 C25.1524547,38.7083305 24.1165878,39.8852932 27.9337416,39.5245904 C30.4785107,39.2841219 31.7508953,38.6453504 31.7508953,37.6082757 C35.0708537,38.0519448 37.2043868,37.2291573 38.1514947,35.1399131 C38.1568134,35.1281805 38.1883063,35.1068442 38.2459732,35.0759044 C39.3588691,34.8474599 40.6517459,34.4512622 42.153931,33.8527361 C39.3558409,33.5468386 38.048793,31.8208934 38.2327873,28.6749005 C38.3260002,27.081116 36.6787996,22.4218376 37.1805765,17.695152 C29.68056,11.4937694 23.7738621,8.47762978 19.4604828,8.64673323 C12.9904138,8.9003884 8.67312551,15.121806 8.89091109,20.6330037 C7.99642686,21.6494093 6.65745434,22.252865 6.72226761,25.6549787 C6.8192008,30.7430994 12.3532797,32.7490766 12.3603069,34.272164 C12.367334,35.7952514 10.0213029,37.2389596 8.67312551,36.7773616 C7.32494815,36.3157636 9.44053046,38.2045325 12.7255114,37.6780255 C12.9398423,37.6436732 13.144661,37.6039175 13.3399676,37.5587584 C14.9444306,40.0632522 17.1254539,41.0978238 19.9367252,40.7119907 Z" mask="url(#jess-small-b)"/>
    <path fill="#49C6A3" stroke="#1D143E" stroke-linecap="round" stroke-linejoin="round" stroke-width=".96" d="M40.617931,47.813609 C39.0278539,44.8975676 37.4177926,42.6928507 35.787747,41.1994584 C33.3426787,38.95937 21.0589883,39.0239045 18.6050592,40.0238086 C16.15113,41.0237127 15.5784305,43.279779 14.4,47.813609 C17.6648832,49.5930421 20.9179551,50.4827586 24.1592157,50.4827586 C26.744162,50.4827586 32.2304004,49.5930421 40.617931,47.813609 Z" mask="url(#jess-small-b)"/>
    <path fill="#DAA293" stroke="#1D143E" stroke-linecap="round" stroke-linejoin="round" stroke-width=".96" d="M22.8973986,35.1909136 C22.9952074,37.4009317 22.9952074,38.8318848 22.8973986,39.4837729 C22.4803443,39.6663178 22.0672568,39.7575903 21.6581361,39.7575903 C21.3369363,39.7575903 20.6274293,40.6342064 21.6581361,41.3679828 C21.9549243,41.579271 22.6861917,41.701899 23.254789,41.856 C24.3325729,41.5309143 28.0372455,41.856 30.1771034,39.9164868 C30.1771034,39.9164868 29.9688097,39.8248025 29.5522221,39.6414338 C29.2233699,37.3070036 29.1411568,34.9731923 29.3055829,32.64" mask="url(#jess-small-b)"/>
    <path fill="#DAA293" stroke="#1D143E" stroke-linecap="round" stroke-linejoin="round" stroke-width=".96" d="M31.5475862,30.3995949 C29.7030227,33.5013761 26.0685326,35.1549911 20.6441158,35.36044 C15.2196991,35.5658889 12.4983271,31.4253188 12.48,22.9387295 C17.2105412,14.9912628 24.2719572,18.5727669 26.6134202,13.44 C28.9326165,15.2216567 29.7118711,17.4341438 28.9326165,20.0923805 C27.7637345,24.0797357 32.1979628,22.8166977 32.2372321,25.6019962 C32.2739795,28.208424 31.1571154,28.066809 31.5210991,30.4647733" mask="url(#jess-small-b)"/>
    <path stroke="#1D143E" stroke-linecap="round" stroke-linejoin="round" stroke-width=".5" d="M16.32,29.76 C17.8373088,31.479899 19.8499985,31.6484466 22.358069,30.265643" mask="url(#jess-small-b)"/>
    <ellipse cx="15.274" cy="24.311" fill="#1D143E" stroke="#1D143E" stroke-linecap="round" stroke-linejoin="round" stroke-width=".5" mask="url(#jess-small-b)" rx="1" ry="1.271"/>
    <ellipse cx="23.914" cy="24.311" fill="#1D143E" stroke="#1D143E" stroke-linecap="round" stroke-linejoin="round" stroke-width=".5" mask="url(#jess-small-b)" rx="1" ry="1.271"/>
    <path stroke="#1D143E" stroke-linecap="round" stroke-linejoin="round" stroke-width=".5" d="M16.4524138 21.3332625C14.8843629 20.9166723 13.560225 21.1104124 12.48 21.9144828M23.04 21.2876304C24.5745086 20.8880101 25.7927155 21.202892 26.6946207 22.2322759" mask="url(#jess-small-b)"/>
    <path stroke="#1D143E" stroke-linecap="round" stroke-linejoin="round" stroke-width=".5" d="M19.5186158,25.1630757 C19.0483351,26.1202874 17.8106826,26.5100365 17.7723043,27.3488726 C17.7467187,27.9080967 18.0377706,28.2388081 18.64546,28.3410067" mask="url(#jess-small-b)" transform="rotate(-20 18.645 26.752)"/>
    <path fill="#129E8E" stroke="#1D143E" stroke-linecap="round" stroke-linejoin="round" stroke-width=".96" d="M22.0880297,39.4617305 C21.343711,39.2472158 20.7037947,39.3719545 20.1682807,39.8359466 C20.0870946,40.7090647 20.6028821,41.6626917 21.7156433,42.6968276 C21.7156433,42.1631689 22.0880297,40.646351 23.8146207,41.8058774 C23.8146207,40.9206239 21.7156433,41.816786 22.0880297,39.4617305 Z" mask="url(#jess-small-b)"/>
    <path fill="#30A08E" stroke="#1D143E" stroke-linecap="round" stroke-linejoin="round" stroke-width=".96" d="M23.04,42.6029852 C23.2842125,42.4073331 25.3382831,41.3972256 25.233213,43.9714747 C27.5523088,44.0546537 31.3204489,42.4758189 31.7793103,40.7304101 C30.9919963,40.3515175 30.3541198,40.2349715 29.8656811,40.3807722 C28.7068929,42.6029852 23.1267752,41.8046549 23.04,42.6029852 Z" mask="url(#jess-small-b)"/>
    <path fill="#FEC93E" stroke="#1D143E" stroke-linecap="round" stroke-linejoin="round" stroke-width=".96" d="M35.52 8.81594655C35.9761969 8.53751585 36.4333815 8.58954199 36.8915537 8.97202497 37.349726 9.35450795 37.3895143 9.82645365 37.0109188 10.3878621M8.91806897 20.0209655C10.9064433 13.3473103 14.5324779 10.0104828 19.7961726 10.0104828 26.6534908 10.0104828 32.9761951 15.7705126 34.6910916 19.2352684 34.7385703 18.7954631 34.6242406 18.2405393 34.5438548 17.653677 33.2631327 8.30367539 17.4201261-4.98563179 7.45781945 1.91075261.890352557 6.45706683 1.45200771 12.4580181 8.73878272 19.9948159" mask="url(#jess-small-b)"/>
    <path fill="#FEC93E" stroke="#1D143E" stroke-linecap="round" stroke-linejoin="round" stroke-width=".96" d="M27.84,6.8984465 C31.1951564,10.1883245 33.6040527,14.1272975 34.0716638,17.5411253 C34.9254785,23.7744597 36.0232741,26.4046273 37.3650504,25.4316281 C38.948,23.3129638 40.6284714,16.6611598 37.542629,11.6048171 C35.2584534,7.86205479 32.074295,6.27007971 27.9901539,6.82889189" mask="url(#jess-small-b)"/>
  </g>
</svg>
