<svg xmlns="http://www.w3.org/2000/svg" viewBox="0 0 16 16">
  <g fill-rule="evenodd">
    <path d="M0,0 L16,0 L16,16 L0,16 L0,0 Z M14.3983209,12.2769647 L14.3794866,12.3234408 C14.1206663,10.6135496 14.9148421,10.7145295 14.8887118,8.85599143 C14.8607884,6.86990788 11.7077131,7.77052912 12.5388776,4.92730769 C13.0929872,3.03182673 12.1227586,1.77042724 10.4736328,0.5 C8.80867369,4.15996812 4.20358618,1.28990731 0.839809801,6.95692381 C0.85284179,13.0083669 2.75976847,15.6464973 6.61694336,15.5 C10.4741182,15.3535027 13.0866953,14.4887192 14.3983209,12.2769647 Z"/>
    <path fill-rule="nonzero" d="M3.69497884 12.0274382C4.93379524 13.4316606 6.60807057 13.5718686 8.57447016 12.4877107 8.79967089 12.3635482 8.88157854 12.0803333 8.757416 11.8551326 8.63325347 11.6299318 8.35003858 11.5480242 8.12483785 11.6721867 6.51443051 12.5600713 5.31837092 12.4599103 4.3933244 11.4113521 4.22319691 11.2185093 3.92895136 11.2000949 3.73610856 11.3702224 3.54326576 11.5403499 3.52485136 11.8345954 3.69497884 12.0274382zM2.74471135 9.51179066C2.09821712 9.51179066 1.65591561 8.86844301 1.65591561 8.13973818 1.65591561 7.41103336 2.09821712 6.76768571 2.74471135 6.76768571 3.39120558 6.76768571 3.83350709 7.41103336 3.83350709 8.13973818 3.83350709 8.86844301 3.39120558 9.51179066 2.74471135 9.51179066zM9.79426335 9.51179066C9.14776912 9.51179066 8.70546761 8.86844301 8.70546761 8.13973818 8.70546761 7.41103336 9.14776912 6.76768571 9.79426335 6.76768571 10.4407576 6.76768571 10.8830591 7.41103336 10.8830591 8.13973818 10.8830591 8.86844301 10.4407576 9.51179066 9.79426335 9.51179066zM3.79193571 5.01276048C2.54322473 4.68101053 1.45267065 4.84057401.561782624 5.50371056.35549629 5.65726073.312745182 5.94896585.466295352 6.15525218.619845522 6.36153852.911550644 6.40428962 1.11783698 6.25073945 1.76747835 5.76717594 2.56530251 5.650443 3.55281861 5.91280027 3.80135773 5.97883063 4.05636669 5.83087805 4.12239705 5.58233892 4.18842742 5.3337998 4.04047483 5.07879084 3.79193571 5.01276048zM8.6475769 5.88084368C9.57854068 5.63839997 10.2647302 5.81576608 10.7859706 6.41068056 10.9554393 6.60410258 11.2496203 6.62352061 11.4430423 6.45405194 11.6364643 6.28458328 11.6558823 5.99040225 11.4864137 5.79698023 10.72143 4.9238708 9.67031157 4.65217796 8.41288345 4.97964026 8.16402299 5.04444907 8.01481965 5.29872824 8.07962846 5.54758869 8.14443727 5.79644915 8.39871644 5.94565248 8.6475769 5.88084368z"/>
    <path fill-rule="nonzero" d="M5.86336951,7.81366644 C5.78503799,7.97310282 5.65687722,8.11595203 5.41663468,8.32480688 C5.41925636,8.32252772 5.20282404,8.50797477 5.14124454,8.56319638 C4.77814999,8.8888026 4.58879884,9.16548744 4.57091788,9.55631206 C4.54150595,10.1991693 4.92387223,10.6336377 5.58145082,10.7442266 C5.83505039,10.7868759 6.07520756,10.6158669 6.11785687,10.3622673 C6.16050618,10.1086677 5.9894972,9.86851058 5.73589763,9.82586127 C5.52683885,9.79070264 5.49413046,9.75353733 5.50120657,9.59887452 C5.50457328,9.52528839 5.57019947,9.42939368 5.7629812,9.25651604 C5.81530093,9.20959815 6.02314464,9.03151013 6.02762272,9.02761711 C6.35423684,8.74367515 6.5527437,8.52241752 6.69920293,8.22431362 C6.81260002,7.99350459 6.71741884,7.7144704 6.48660981,7.60107331 C6.25580078,7.48767623 5.9767666,7.58285741 5.86336951,7.81366644 Z" transform="rotate(-20 5.658 9.152)"/>
  </g>
</svg>
